<svg xmlns="http://www.w3.org/2000/svg" viewBox="0 0 116.38 21.94"><defs><style>.cls-1{fill:#fff;}</style></defs><title>Recurso 5</title><g id="Capa_2" data-name="Capa 2"><g id="Pag_3" data-name="Pag 3"><path class="cls-1" d="M35.81.24s-5.66,11.17-6.54,13c-1-1.91-6.62-13-6.62-13h-11v21.7h6.14V6.22h1.28c.32.64,7.66,15.71,7.66,15.71h5.1s7.34-15,7.66-15.71h1.28V21.94H46.9V.24Z"/><rect class="cls-1" y="0.24" width="6.86" height="21.7"/><path class="cls-1" d="M48.1,21.86h7.26s1.6-3.11,1.91-3.67h13.8c.32.56,1.83,3.67,1.83,3.67h7.26L69.16.16H59.11ZM64.45,5.1c.32.56,3.43,6.78,4.15,8.22h-9c.72-1.44,3.91-7.66,4.15-8.22Z"/><path class="cls-1" d="M109.28.16h-7l-5.9,7-5.82-7H82.08s8,9.41,8.53,10.13L80.4,21.78h9s6.14-6.94,6.94-7.9c.8,1,6.86,7.9,6.86,7.9h9L102,10.29c.64-.72,8.53-10.13,8.53-10.13Z"/><path class="cls-1" d="M113.9,4.71v.24a2.49,2.49,0,0,0,2.47-2.47,2.47,2.47,0,0,0-4.95,0,2.49,2.49,0,0,0,2.47,2.47V4.47a2.13,2.13,0,0,1-1.44-.56,2,2,0,0,1-.64-1.44A2,2,0,0,1,112.47,1,2,2,0,0,1,113.9.4a1.87,1.87,0,0,1,1.44.64A2,2,0,0,1,116,2.47a1.87,1.87,0,0,1-.64,1.44,1.92,1.92,0,0,1-1.44.56v.24"/><path class="cls-1" d="M113.35,2.87v.88h-.48V1h1.36c.56,0,.8.24.8.8,0,.4,0,.72-.48.72h0c.32,0,.48.24.48.64v.48h-.48V3.19c0-.24-.08-.4-.32-.4h-.88Zm.72-.4c.4,0,.48-.08.48-.48s-.08-.48-.4-.48h-.72v1Z"/></g></g></svg>